<svg xmlns="http://www.w3.org/2000/svg" xmlns:xlink="http://www.w3.org/1999/xlink" xml:space="preserve" id="Layer_1" x="0px" y="0px" style="enable-background:new 0 0 600.81 139.79" version="1.1" viewBox="0 0 600.81 139.79"><style>.st1{display:inline}.st2{fill:#fff}.st4{fill:#0083ca}.st5{fill:#0085cb}.st6{fill:#0086cd}.st7{fill:#0088ce}.st8{fill:#008acf}.st9{fill:#008cd0}.st10{fill:#008ed2}.st11{fill:#008fd3}.st12{fill:#0091d4}.st13{fill:#0093d5}.st14{fill:#0095d7}.st15{fill:#0097d8}.st16{fill:#0099d9}.st17{fill:#009bda}.st18{fill:#009ddc}.st19{fill:#009fdd}.st20{fill:#00a1de}.st21{fill:#00a3df}.st22{fill:#00a5e1}.st23{fill:#00a7e2}.st24{fill:#00a9e3}.st25{fill:#00abe5}.st26{fill:#00ade6}.st27{fill:#00afe7}.st28{fill:#00b2e9}.st29{fill:#00b4ea}.st30{fill:#00b6eb}.st31{fill:#00b8ed}.st32{fill:#01bbee}.st33{fill:#11bdf0}.st34{fill:#1ac0f1}.st35{fill:#1fc4f4}.st36{fill:#32c5f4}.st37{fill:#3fc7f4}.st38{fill:#4ac8f5}.st39{fill:#54caf5}.st40{fill:#5cccf5}.st41{fill:#64cdf6}.st42{fill:#6ccff6}.st43{fill:#73d1f6}.st44{fill:#7ad2f7}.st45{fill:#81d4f7}.st46{fill:#88d6f8}.st47{fill:#8ed8f8}.st48{fill:#94daf8}.st49{fill:#9bdcf9}.st50{fill:#a1ddf9}.st51{fill:#a7dff9}.st52{fill:#ade1fa}.st53{fill:#b3e3fa}.st54{fill:#b8e5fa}.st55{fill:#bee7fb}.st56{fill:#c4e9fb}.st57{fill:#caebfc}.st58{fill:#cfedfc}.st59{fill:#d5effc}.st60{fill:#daf1fd}.st61{fill:#e0f3fd}.st62{fill:#e6f5fd}.st63{fill:#ebf7fe}.st64{fill:#f1fafe}.st65{fill:#f7fcfe}.st66{fill:#0067ac}</style><path d="M139.85 69.9c0 38.61-31.31 69.9-69.85 69.9C31.37 139.8.07 108.51.07 69.9.08 31.33 31.37 0 70.01 0c38.53 0 69.84 31.33 69.84 69.9z" class="st2"/><defs><path id="SVGID_00000183966781261237568650000002306308254027868605_" d="M70.05 136.5c36.73 0 66.53-29.8 66.53-66.59 0-36.77-29.8-66.59-66.54-66.59-36.79 0-66.57 29.81-66.57 66.59-.01 36.8 29.78 66.59 66.58 66.59z"/></defs><use xlink:href="#SVGID_00000183966781261237568650000002306308254027868605_" style="overflow:visible;fill:#0083ca"/><clipPath id="SVGID_00000072961348815501867780000015812319411961401999_"><use xlink:href="#SVGID_00000183966781261237568650000002306308254027868605_" style="overflow:visible"/></clipPath><defs><path id="SVGID_00000013183968001011561000000002372208447331648394_" d="M70.05 136.5c36.73 0 66.53-29.8 66.53-66.56 0-36.77-29.8-66.56-66.54-66.56-36.79 0-66.57 29.79-66.57 66.56-.01 36.77 29.78 66.56 66.58 66.56z"/></defs><clipPath id="SVGID_00000008844708790351770470000015271249638386568341_"><use xlink:href="#SVGID_00000013183968001011561000000002372208447331648394_" style="overflow:visible"/></clipPath><g style="clip-path:url(#SVGID_00000008844708790351770470000015271249638386568341_)"><path d="M70.63 102.03c29.29 0 54.34 8.18 65.12 19.75 3.55-8.23 5.54-17.4 5.54-26.93 0-38.22-31.65-69.14-70.66-69.14C31.67 25.71 0 56.64 0 94.88c0 9.53 2 18.65 5.55 26.9 10.76-11.57 35.84-19.75 65.08-19.75z" class="st4"/><path d="M70.62 102.11c29.22 0 54.2 8.11 64.96 19.59a67.072 67.072 0 0 0 5.53-26.71c0-37.91-31.57-68.68-70.48-68.68C31.78 26.31.18 57.09.18 95.02c0 9.46 1.99 18.51 5.54 26.69 10.72-11.49 35.74-19.6 64.9-19.6z" class="st5"/><path d="M70.61 102.18c29.14 0 54.06 8.04 64.79 19.43 3.54-8.1 5.51-17.11 5.51-26.5 0-37.61-31.49-68.22-70.3-68.22C31.86 26.89.34 57.52.34 95.14c0 9.38 1.99 18.36 5.53 26.47 10.7-11.38 35.65-19.43 64.74-19.43z" class="st6"/><path d="M70.6 102.26c29.07 0 53.92 7.98 64.62 19.27 3.53-8.03 5.5-16.97 5.5-26.28 0-37.3-31.41-67.76-70.12-67.76C31.95 27.49.51 57.97.51 95.28c0 9.31 1.98 18.21 5.52 26.26 10.67-11.31 35.56-19.28 64.57-19.28z" class="st7"/><path d="M70.59 102.33c28.99 0 53.79 7.91 64.45 19.11a64.354 64.354 0 0 0 5.49-26.07c0-36.99-31.33-67.3-69.94-67.3C32.04 28.07.68 58.4.68 95.4c0 9.23 1.98 18.07 5.5 26.04 10.65-11.2 35.48-19.11 64.41-19.11z" class="st8"/><path d="M70.58 102.41c28.92 0 53.65 7.84 64.28 18.95 3.52-7.9 5.48-16.69 5.48-25.85 0-36.68-31.25-66.84-69.76-66.84C32.13 28.67.85 58.84.85 95.53c0 9.16 1.97 17.92 5.49 25.83 10.62-11.11 35.38-18.95 64.24-18.95z" class="st9"/><path d="M70.57 102.48c28.84 0 53.51 7.78 64.12 18.79a62.663 62.663 0 0 0 5.47-25.63c0-36.38-31.17-66.38-69.58-66.38-38.35 0-69.55 30.02-69.55 66.4 0 9.08 1.97 17.77 5.48 25.61 10.58-11.01 35.28-18.79 64.06-18.79z" class="st10"/><path d="M70.57 102.56c28.77 0 53.37 7.71 63.95 18.63a61.704 61.704 0 0 0 5.45-25.42c0-36.07-31.09-65.92-69.4-65.92-38.26 0-69.37 29.86-69.37 65.94 0 9.01 1.96 17.63 5.47 25.4 10.55-10.93 35.19-18.63 63.9-18.63z" class="st11"/><path d="M70.56 102.63c28.69 0 53.23 7.64 63.78 18.47a60.87 60.87 0 0 0 5.44-25.2c0-35.76-31-65.46-69.22-65.46-38.15 0-69.19 29.71-69.19 65.48 0 8.93 1.96 17.48 5.45 25.19 10.53-10.84 35.11-18.48 63.74-18.48z" class="st12"/><path d="M70.55 102.7c28.61 0 53.09 7.57 63.61 18.31a60.051 60.051 0 0 0 5.43-24.99c0-35.45-30.92-65-69.04-65-38.05 0-69.01 29.56-69.01 65.02 0 8.86 1.95 17.33 5.44 24.97 10.51-10.73 35.01-18.31 63.57-18.31z" class="st13"/><path d="M70.54 102.78c28.54 0 52.95 7.51 63.44 18.15a59.105 59.105 0 0 0 5.42-24.77c0-35.14-30.84-64.54-68.86-64.54-37.95 0-68.83 29.41-68.83 64.56 0 8.78 1.95 17.19 5.43 24.76 10.48-10.65 34.92-18.16 63.4-18.16z" class="st14"/><path d="M70.53 102.85c28.46 0 52.82 7.44 63.28 17.99 3.48-7.5 5.41-15.85 5.41-24.56 0-34.84-30.76-64.08-68.68-64.08-37.85 0-68.65 29.26-68.65 64.09 0 8.71 1.94 17.04 5.42 24.54 10.44-10.54 34.82-17.98 63.22-17.98z" class="st15"/><path d="M70.52 102.93c28.39 0 52.68 7.37 63.11 17.83a57.473 57.473 0 0 0 5.39-24.34c0-34.53-30.68-63.62-68.5-63.62-37.75 0-68.47 29.1-68.47 63.63 0 8.63 1.94 16.89 5.4 24.33 10.43-10.46 34.74-17.83 63.07-17.83z" class="st16"/><path d="M70.51 103c28.31 0 52.54 7.31 62.94 17.67a56.546 56.546 0 0 0 5.38-24.12c0-34.22-30.6-63.16-68.32-63.16-37.65 0-68.29 28.95-68.29 63.17 0 8.56 1.93 16.74 5.39 24.11C18.01 110.31 42.26 103 70.51 103z" class="st17"/><path d="M70.5 103.08c28.24 0 52.4 7.24 62.77 17.51a55.75 55.75 0 0 0 5.37-23.91c0-33.91-30.52-62.7-68.14-62.7-37.55 0-68.11 28.8-68.11 62.71 0 8.48 1.93 16.6 5.38 23.9 10.37-10.27 34.56-17.51 62.73-17.51z" class="st18"/><path d="M70.49 103.15c28.16 0 52.26 7.17 62.61 17.35a54.948 54.948 0 0 0 5.36-23.69c0-33.6-30.44-62.24-67.96-62.24-37.45 0-67.93 28.64-67.93 62.25 0 8.41 1.92 16.45 5.36 23.68 10.34-10.18 34.46-17.35 62.56-17.35z" class="st19"/><path d="M70.48 103.23c28.09 0 52.12 7.11 62.44 17.19a54.043 54.043 0 0 0 5.34-23.48c0-33.3-30.36-61.78-67.78-61.78-37.35 0-67.74 28.49-67.74 61.79 0 8.33 1.92 16.3 5.35 23.47 10.31-10.09 34.37-17.19 62.39-17.19z" class="st20"/><path d="M70.47 103.3c28.01 0 51.99 7.04 62.27 17.03a53.25 53.25 0 0 0 5.33-23.26c0-32.99-30.28-61.32-67.6-61.32-37.25 0-67.56 28.34-67.56 61.33 0 8.26 1.91 16.16 5.34 23.26 10.28-10 34.28-17.04 62.22-17.04z" class="st21"/><path d="M70.47 103.38c27.94 0 51.85 6.97 62.1 16.87a52.462 52.462 0 0 0 5.32-23.04c0-32.68-30.19-60.86-67.42-60.86-37.15 0-67.38 28.19-67.38 60.87 0 8.18 1.91 16.01 5.33 23.04 10.24-9.91 34.17-16.88 62.05-16.88z" class="st22"/><path d="M70.46 103.45c27.86 0 51.71 6.9 61.93 16.71a51.585 51.585 0 0 0 5.31-22.83c0-32.37-30.11-60.4-67.24-60.4-37.05 0-67.2 28.03-67.2 60.4 0 8.11 1.9 15.86 5.31 22.83 10.22-9.81 34.09-16.71 61.89-16.71z" class="st23"/><path d="M70.45 103.52c27.78 0 51.57 6.84 61.77 16.55 3.42-6.9 5.3-14.59 5.3-22.61 0-32.06-30.03-59.94-67.06-59.94-36.95 0-67.02 27.88-67.02 59.94 0 8.03 1.9 15.72 5.3 22.61 10.18-9.71 33.99-16.55 61.71-16.55z" class="st24"/><path d="M70.44 103.6c27.71 0 51.43 6.77 61.6 16.39a50.035 50.035 0 0 0 5.28-22.4c0-31.76-29.95-59.48-66.88-59.48-36.85 0-66.84 27.73-66.84 59.48 0 7.96 1.89 15.57 5.29 22.4 10.17-9.62 33.9-16.39 61.55-16.39z" class="st25"/><path d="M70.43 103.67c27.63 0 51.29 6.7 61.43 16.23 3.4-6.77 5.27-14.31 5.27-22.18 0-31.45-29.87-59.02-66.7-59.02-36.75 0-66.66 27.58-66.66 59.02 0 7.88 1.89 15.42 5.28 22.18 10.14-9.52 33.81-16.23 61.38-16.23z" class="st26"/><path d="M70.42 103.75c27.56 0 51.15 6.64 61.26 16.07 3.4-6.7 5.26-14.17 5.26-21.97 0-31.14-29.79-58.56-66.52-58.56-36.65 0-66.48 27.42-66.48 58.56 0 7.81 1.88 15.28 5.26 21.97 10.12-9.44 33.73-16.07 61.22-16.07z" class="st27"/><path d="M70.41 103.82c27.48 0 51.02 6.57 61.09 15.92a47.655 47.655 0 0 0 5.25-21.75c0-30.83-29.71-58.1-66.34-58.1-36.55 0-66.3 27.27-66.3 58.1 0 7.73 1.88 15.13 5.25 21.75 10.09-9.35 33.63-15.92 61.05-15.92z" class="st28"/><path d="M70.4 103.9c27.41 0 50.88 6.5 60.93 15.76 3.38-6.57 5.24-13.89 5.24-21.53 0-30.53-29.63-57.64-66.16-57.64-36.45 0-66.12 27.12-66.12 57.64 0 7.66 1.87 14.98 5.24 21.54 10.05-9.27 33.53-15.77 60.87-15.77z" class="st29"/><path d="M70.39 103.97c27.33 0 50.74 6.43 60.76 15.6 3.38-6.5 5.22-13.75 5.22-21.32 0-30.22-29.55-57.18-65.98-57.18-36.34 0-65.94 26.97-65.94 57.17 0 7.58 1.87 14.83 5.23 21.33 10.03-9.16 33.45-15.6 60.71-15.6z" class="st30"/><path d="M70.38 104.05c27.26 0 50.6 6.37 60.59 15.44a45.315 45.315 0 0 0 5.21-21.1c0-29.91-29.47-56.72-65.8-56.72-36.24 0-65.76 26.81-65.76 56.71 0 7.51 1.86 14.69 5.21 21.11 10.01-9.08 33.36-15.44 60.55-15.44z" class="st31"/><path d="M70.37 104.12c27.18 0 50.46 6.3 60.42 15.28 3.36-6.37 5.2-13.47 5.2-20.89 0-29.6-29.38-56.26-65.62-56.26-36.14 0-65.58 26.66-65.58 56.25 0 7.43 1.86 14.54 5.2 20.9 9.98-8.98 33.27-15.28 60.38-15.28z" class="st32"/><path d="M70.37 104.2c27.11 0 50.32 6.23 60.26 15.12 3.36-6.3 5.19-13.33 5.19-20.67 0-29.29-29.3-55.8-65.44-55.8-36.04 0-65.4 26.51-65.4 55.79 0 7.36 1.85 14.39 5.19 20.68 9.93-8.89 33.16-15.12 60.2-15.12z" class="st33"/><path d="M70.36 104.27c27.03 0 50.19 6.17 60.09 14.96 3.35-6.23 5.17-13.19 5.17-20.46 0-28.99-29.22-55.34-65.26-55.34-35.94 0-65.22 26.36-65.22 55.33 0 7.28 1.84 14.25 5.18 20.47 9.91-8.79 33.08-14.96 60.04-14.96z" class="st34"/><path d="M70.35 104.34c26.96 0 50.05 6.1 59.92 14.8 3.34-6.17 5.16-13.05 5.16-20.24 0-28.68-29.14-54.88-65.08-54.88-35.84 0-65.04 26.2-65.04 54.87 0 7.21 1.84 14.1 5.16 20.25 9.89-8.7 32.99-14.8 59.88-14.8z" class="st35"/><path d="M70.35 104.51c26.92 0 49.98 6.06 59.84 14.7 3.34-6.13 5.16-12.96 5.16-20.11 0-28.49-29.1-54.54-64.99-54.54-35.8 0-64.95 26.05-64.95 54.53 0 7.16 1.84 14.01 5.16 20.12 9.86-8.64 32.93-14.7 59.78-14.7z" class="st36"/><path d="M70.35 104.68c26.88 0 49.91 6.02 59.76 14.6 3.33-6.09 5.15-12.87 5.15-19.97 0-28.31-29.06-54.21-64.91-54.21C34.6 45.1 5.49 71 5.49 99.29c0 7.11 1.83 13.91 5.15 19.99 9.86-8.58 32.89-14.6 59.71-14.6z" class="st37"/><path d="M70.35 104.85c26.85 0 49.85 5.98 59.68 14.51 3.33-6.05 5.14-12.79 5.14-19.84 0-28.12-29.02-53.87-64.82-53.87-35.7 0-64.78 25.75-64.78 53.86 0 7.07 1.83 13.82 5.14 19.86 9.85-8.53 32.86-14.52 59.64-14.52z" class="st38"/><path d="M70.35 105.02c26.81 0 49.78 5.94 59.59 14.41 3.32-6.01 5.13-12.7 5.13-19.71 0-27.94-28.99-53.53-64.73-53.53-35.65 0-64.69 25.6-64.69 53.52 0 7.02 1.83 13.73 5.13 19.73 9.85-8.47 32.83-14.42 59.57-14.42z" class="st39"/><path d="M70.35 105.19c26.77 0 49.71 5.9 59.51 14.32 3.31-5.97 5.13-12.62 5.13-19.58 0-27.75-28.95-53.2-64.64-53.2-35.61 0-64.6 25.44-64.6 53.18 0 6.98 1.83 13.63 5.12 19.59 9.82-8.4 32.77-14.31 59.48-14.31z" class="st40"/><path d="M70.35 105.36c26.74 0 49.65 5.87 59.43 14.22 3.31-5.93 5.12-12.53 5.12-19.45 0-27.57-28.91-52.86-64.55-52.86-35.56 0-64.51 25.29-64.51 52.84 0 6.93 1.82 13.54 5.12 19.46 9.8-8.34 32.72-14.21 59.39-14.21z" class="st41"/><path d="M70.35 105.53c26.7 0 49.58 5.83 59.35 14.12 3.3-5.89 5.11-12.45 5.11-19.31 0-27.38-28.87-52.52-64.46-52.52-35.51 0-64.42 25.14-64.42 52.51 0 6.88 1.82 13.45 5.11 19.33 9.79-8.3 32.68-14.13 59.31-14.13z" class="st42"/><path d="M70.35 105.7c26.66 0 49.51 5.79 59.27 14.03 3.3-5.85 5.11-12.36 5.11-19.18 0-27.2-28.83-52.18-64.37-52.18-35.47 0-64.33 24.99-64.33 52.17 0 6.84 1.82 13.35 5.1 19.2 9.76-8.25 32.62-14.04 59.22-14.04z" class="st43"/><path d="M70.35 105.87c26.63 0 49.45 5.75 59.19 13.93 3.29-5.81 5.1-12.28 5.1-19.05 0-27.01-28.79-51.85-64.29-51.85-35.42 0-64.25 24.84-64.25 51.84 0 6.79 1.82 13.26 5.09 19.07 9.77-8.19 32.6-13.94 59.16-13.94z" class="st44"/><path d="M70.35 106.04c26.59 0 49.38 5.71 59.11 13.84 3.28-5.77 5.09-12.19 5.09-18.92 0-26.83-28.75-51.51-64.2-51.51-35.37 0-64.16 24.69-64.16 51.5 0 6.74 1.81 13.16 5.09 18.93 9.74-8.13 32.54-13.84 59.07-13.84z" class="st45"/><path d="M70.35 106.21c26.55 0 49.31 5.67 59.02 13.74 3.28-5.74 5.09-12.1 5.09-18.78 0-26.64-28.71-51.17-64.11-51.17-35.32 0-64.07 24.53-64.07 51.16 0 6.7 1.81 13.07 5.08 18.8 9.73-8.08 32.5-13.75 58.99-13.75z" class="st46"/><path d="M70.35 106.38c26.52 0 49.24 5.63 58.94 13.64 3.27-5.7 5.08-12.02 5.08-18.65 0-26.45-28.67-50.84-64.02-50.84-35.28 0-63.98 24.38-63.98 50.82 0 6.65 1.81 12.98 5.07 18.67 9.71-8.01 32.46-13.64 58.91-13.64z" class="st47"/><path d="M70.35 106.55c26.48 0 49.18 5.59 58.86 13.55 3.27-5.66 5.07-11.93 5.07-18.52 0-26.27-28.64-50.5-63.93-50.5-35.23 0-63.89 24.23-63.89 50.49 0 6.61 1.81 12.88 5.06 18.54 9.7-7.97 32.41-13.56 58.83-13.56z" class="st48"/><path d="M70.35 106.72c26.44 0 49.11 5.56 58.78 13.45 3.26-5.62 5.06-11.85 5.06-18.39 0-26.08-28.6-50.16-63.84-50.16-35.18 0-63.81 24.08-63.81 50.15 0 6.56 1.8 12.79 5.05 18.41 9.7-7.91 32.38-13.46 58.76-13.46z" class="st49"/><path d="M70.35 106.89c26.41 0 49.04 5.52 58.7 13.35 3.25-5.58 5.06-11.76 5.06-18.25 0-25.9-28.56-49.83-63.76-49.83-35.14 0-63.72 23.93-63.72 49.81 0 6.51 1.8 12.7 5.05 18.27 9.67-7.84 32.32-13.35 58.67-13.35z" class="st50"/><path d="M70.35 107.06c26.37 0 48.98 5.48 58.62 13.26 3.25-5.54 5.05-11.68 5.05-18.12 0-25.71-28.52-49.49-63.67-49.49-35.09 0-63.63 23.77-63.63 49.47 0 6.47 1.8 12.6 5.04 18.14 9.66-7.79 32.28-13.26 58.59-13.26z" class="st51"/><path d="M70.35 107.22c26.33 0 48.91 5.44 58.54 13.16 3.24-5.5 5.04-11.59 5.04-17.99 0-25.53-28.48-49.15-63.58-49.15-35.04 0-63.54 23.62-63.54 49.14 0 6.42 1.8 12.51 5.03 18.01 9.64-7.73 32.24-13.16 58.51-13.17z" class="st52"/><path d="M70.35 107.39c26.3 0 48.84 5.4 58.45 13.07 3.24-5.46 5.04-11.51 5.04-17.86 0-25.34-28.44-48.81-63.49-48.81-34.99 0-63.45 23.47-63.45 48.8 0 6.37 1.8 12.42 5.02 17.88 9.63-7.68 32.19-13.07 58.43-13.08z" class="st53"/><path d="M70.35 107.56c26.26 0 48.78 5.36 58.37 12.97 3.23-5.42 5.03-11.42 5.03-17.72 0-25.16-28.4-48.48-63.4-48.48-34.95 0-63.36 23.32-63.36 48.46 0 6.33 1.79 12.32 5.02 17.75 9.61-7.62 32.14-12.97 58.34-12.98z" class="st54"/><path d="M70.35 107.73c26.22 0 48.71 5.32 58.29 12.87 3.23-5.38 5.02-11.33 5.02-17.59 0-24.97-28.36-48.14-63.31-48.14-34.9 0-63.28 23.17-63.28 48.13 0 6.28 1.79 12.23 5.01 17.62 9.6-7.56 32.11-12.88 58.27-12.89z" class="st55"/><path d="M70.35 107.9c26.19 0 48.64 5.28 58.21 12.78 3.22-5.34 5.02-11.25 5.02-17.46 0-24.79-28.32-47.8-63.23-47.8-34.85 0-63.19 23.02-63.19 47.79 0 6.23 1.79 12.14 5 17.48 9.59-7.5 32.06-12.78 58.19-12.79z" class="st56"/><path d="M70.35 108.07c26.15 0 48.58 5.24 58.13 12.68 3.21-5.3 5.01-11.16 5.01-17.33 0-24.6-28.28-47.47-63.14-47.47-34.81 0-63.1 22.86-63.1 47.45 0 6.19 1.79 12.04 4.99 17.35 9.57-7.43 32.02-12.67 58.11-12.68z" class="st57"/><path d="M70.35 108.24c26.11 0 48.51 5.21 58.05 12.58 3.21-5.26 5-11.08 5-17.2 0-24.42-28.25-47.13-63.05-47.13-34.76 0-63.01 22.71-63.01 47.12 0 6.14 1.78 11.95 4.98 17.22 9.56-7.38 31.97-12.58 58.03-12.59z" class="st58"/><path d="M70.35 108.41c26.08 0 48.44 5.17 57.97 12.49 3.2-5.22 4.99-10.99 4.99-17.06 0-24.23-28.21-46.79-62.96-46.79-34.71 0-62.92 22.56-62.92 46.78 0 6.1 1.78 11.86 4.98 17.09 9.54-7.34 31.92-12.5 57.94-12.51z" class="st59"/><path d="M70.35 108.58c26.04 0 48.38 5.13 57.88 12.39 3.2-5.19 4.99-10.91 4.99-16.93 0-24.05-28.17-46.46-62.87-46.46-34.66 0-62.83 22.41-62.83 46.44 0 6.05 1.78 11.76 4.97 16.96 9.52-7.27 31.88-12.39 57.86-12.4z" class="st60"/><path d="M70.35 108.75c26 0 48.31 5.09 57.8 12.3 3.19-5.15 4.98-10.82 4.98-16.8 0-23.86-28.13-46.12-62.78-46.12-34.62 0-62.75 22.26-62.75 46.1 0 6 1.78 11.67 4.96 16.82 9.52-7.21 31.84-12.29 57.79-12.3z" class="st61"/><path d="M70.35 108.92c25.97 0 48.24 5.05 57.72 12.2 3.18-5.11 4.97-10.74 4.97-16.67 0-23.68-28.09-45.78-62.7-45.78-34.57 0-62.66 22.11-62.66 45.77 0 5.96 1.77 11.58 4.95 16.69 9.51-7.16 31.81-12.2 57.72-12.21z" class="st62"/><path d="M70.35 109.09c25.93 0 48.18 5.01 57.64 12.1 3.18-5.07 4.97-10.65 4.97-16.53 0-23.49-28.05-45.44-62.61-45.44-34.52 0-62.57 21.95-62.57 45.43 0 5.91 1.77 11.48 4.95 16.56 9.48-7.11 31.75-12.11 57.62-12.12z" class="st63"/><path d="M70.35 109.26c25.89 0 48.11 4.97 57.56 12.01 3.17-5.03 4.96-10.56 4.96-16.4 0-23.31-28.01-45.11-62.52-45.11-34.48 0-62.48 21.8-62.48 45.09 0 5.86 1.77 11.39 4.94 16.43 9.47-7.05 31.7-12.01 57.54-12.02z" class="st64"/><path d="M70.35 109.43c25.86 0 48.04 4.93 57.48 11.91 3.17-4.99 4.95-10.48 4.95-16.27 0-23.12-27.97-44.77-62.43-44.77-34.43 0-62.39 21.65-62.39 44.76 0 5.82 1.77 11.29 4.93 16.3 9.45-7 31.66-11.92 57.46-11.93z" class="st65"/><path d="M70.35 109.6c25.82 0 47.97 4.9 57.4 11.82 3.16-4.95 4.95-10.39 4.95-16.14 0-22.94-27.93-44.43-62.34-44.43-34.38 0-62.3 21.5-62.3 44.42 0 5.77 1.76 11.2 4.92 16.17 9.43-6.95 31.6-11.83 57.37-11.84z" class="st2"/></g><path d="M70.03 86.72c-22.59 0-43.55 3.84-60.84 10.34 10.39 23.25 33.7 39.44 60.86 39.44 27.11 0 50.38-16.21 60.8-39.44-17.29-6.5-38.28-10.34-60.82-10.34z" class="st4"/><path d="M157.98 89.82h44.04v37.94h17.23V89.82h44.05V79.1H157.98zM183.75 61.2c3.43 2.64 7.47 4.74 12.04 6.28 4.57 1.52 9.56 2.3 14.84 2.3 5.2 0 10.16-.78 14.71-2.3 4.57-1.53 8.62-3.65 12.06-6.28 3.43-2.74 6.19-5.94 8.21-9.52 2.01-3.61 3.04-7.52 3.04-11.65 0-4.03-1.03-7.91-3.04-11.53-2.02-3.58-4.77-6.78-8.22-9.52-3.42-2.62-7.47-4.76-12.03-6.33-4.55-1.57-9.51-2.37-14.72-2.37-5.3 0-10.29.79-14.84 2.37-4.57 1.57-8.62 3.71-12.05 6.34-3.44 2.72-6.18 5.92-8.15 9.52-1.97 3.61-2.98 7.48-2.98 11.51 0 4.13 1.01 8.04 2.98 11.65 1.96 3.59 4.71 6.79 8.15 9.53zm6.1-21.17c0-2.49.55-4.94 1.63-7.23a19.17 19.17 0 0 1 4.46-6.04c1.86-1.78 4.07-3.2 6.57-4.23 2.5-1.01 5.24-1.53 8.12-1.53 2.8 0 5.48.52 7.99 1.53 2.5 1.03 4.72 2.45 6.58 4.24a20.19 20.19 0 0 1 4.52 6.04c1.12 2.3 1.68 4.73 1.68 7.22 0 2.58-.56 5.05-1.68 7.36a20.137 20.137 0 0 1-4.53 6.04c-1.87 1.79-4.08 3.19-6.57 4.16-5.08 1.98-11.21 1.93-16.12 0-2.5-.97-4.71-2.37-6.58-4.16a19.1 19.1 0 0 1-4.45-6.04c-1.07-2.3-1.62-4.78-1.62-7.36zM356.94 12.31h-13.41l.82 1.01c.33.42.53.86.6 1.39.4 1.63.58 4.21.58 7.67v53.43c0 3.34-1.95 5.58-5.96 6.84-1.33.41-3.43.7-6.23.86H296.8c-1.95 0-2.56-.44-2.77-.71-.4-.5-.6-1.33-.6-2.43V59.06H325c1.89 0 3.17-.38 3.9-1.15.72-.74 1.09-1.89 1.09-3.39V20.24c0-1.51-.39-2.65-1.16-3.42-.78-.75-2.07-1.12-3.95-1.12h-49.27v10.72h37.15v21.92H274.4l1.13 2.35c.46 1.35.69 3.02.69 4.96V86.4c0 1.93.68 3.61 1.99 4.98 1.81 1.89 4.73 2.84 8.69 2.84H330l6.82-.26c4.08-.42 6.96-1.16 8.74-2.26v34.78h17.23V16.97c-.02-2.08-1.03-4.54-5.85-4.66zM471.42 16.71c0-2.01-1.01-4.4-5.83-4.4h-13.22l1.12 2.31c.46 1.68.7 4.25.7 7.64v104.22h17.23V59.43h16.21v-10.7h-16.21V16.71zM436.07 15.7h-52.42v10.59l38.25-.01c.31.07.57.19.77.31 0 0 .1.18-.05.92-.44 6.81-1.74 13.22-3.9 19.2h-34.46v10.72h29.42c-7.28 12.31-18.89 22.48-34.75 30.44l-.63.32 4.76 7.44.47-.17c38.1-13.14 57.46-38.5 57.53-75.34-.01-2.03-.88-4.42-4.99-4.42zM504.32 21.61c.62 1.59.92 3.43.92 5.44v39.32c0 2.26.83 4.28 2.47 5.99 2.13 2.22 5.33 3.34 9.53 3.34h68.02V64.99h-59.55c-2.24 0-3.24-.9-3.24-2.9V29.57h62.19V18.86h-82.11l.75 1.01c.54.68.87 1.27 1.02 1.74zM492.3 103.29h105.32v10.72H492.3z" class="st66"/></svg>