<svg xmlns="http://www.w3.org/2000/svg" width="61.027733mm" height="9.9998703mm" viewBox="0 0 61.027733 9.9998703"><path d="m196.832 407.871-.344-.223c-1.172-1.171-2.808-1.675-4.992-1.55-1.82.113-3.262.832-4.363 1.504v-.051c0-.571.062-1.188.125-1.785.062-.61.129-1.231.129-1.817 0-.601-.067-1.168-.274-1.656a.323.323 0 0 0-.312-.199c-.586.015-1.735.418-2.012.66 0 .004-.152.332-.152.332-.008.652-.153 2.469-.297 2.687.004-.007-.078.219-.078.219-.246 2.598-.25 4.879-.024 6.836.024.199.403.492.696.598.32.117 1.316-.149 1.894-.367-.008.003.215-.032.215-.032.184-.023.289-.175.281-.382-.004-.004.016-.563.016-.563.414-1.691 2.098-3.711 4.09-4.012 1.125-.179 2.015.11 2.718.875.094.137.301 1.356-.441 2.754-.555 1.031-1.66 1.906-3.113 2.453-1.375.52-2.887.731-4.758.668-.078-.05-1.75-1.183-1.75-1.183-1.484-1.039-3.324-2.336-4.992-2.969-.297-.113-.821-.551-1.137-.813l-.172-.14c-.965-.77-2.797-1.992-4.269-2.973l-.793-.531c.004-.055.004-.168.004-.168.043-.047.968-.602.968-.602 1.293-.757 1.891-1.129 2.02-1.32-.027.031.172-.101.172-.101.011-.004 3.207-1.817 3.207-1.817 3.082-1.691 6.574-3.613 8.406-5.512.004-.003.09-.289.09-.289l.039-.257c.125-.407.129-.719.027-1.079a.341.341 0 0 0-.25-.246c-1.429-.144-3.277.715-4.957 2.293-.379.356-.699.528-1.035.711l-.258.145c-1.851 1.051-6.023 3.644-8.211 5.043.145-2.352.578-5.692 1.114-8.481l-.059-.332c-.008-.011-.227-.422-.227-.422l-.171-.3-.047-.012c-.438-.223-.793-.133-1.055-.067l-.438.161-.582.211a.316.316 0 0 0-.242.207c-1.043 2.519-1.914 6.668-2.121 9.988-2.082-1.324-4.012-2.281-4.957-2.742l-.027-.012-.11-.027c-.343-.043-.757-.293-1.156-.536a74.838 74.838 0 0 1-.793-.511l-1.211-.778c.008.008-.32-.074-.32-.074-.52.09-1.52.762-1.816 1.223a.34.34 0 0 0-.055.191c0 .098.031.196.055.289l.054.246.055.149c.582.594 2.047 1.586 3.484 2.359l1.668.883 2.551 1.395c0 .011.434.343.434.343l.3.172.055.035c-.68.457-4.64 3.098-4.64 3.098l-2.438 1.617c-.23.156-1.195.59-1.406.672-.528.219-.93.547-1.094.906l-.066.141.066.094.188.14c-.012 0 .246.164.246.164l.269.184c.008.004.254.043.254.043.43.016 1.066-.231 2.254-.75 1.09-.484 4.051-2.27 5.316-3.035l.543-.324c.223.019.469-.168.688-.332a6.52 6.52 0 0 1 1.144-.692c.008-.004.2-.109.383-.211-.004.055-.004.145-.004.145.059 3.875.278 6.691.703 8.859l.004.039.043.086c.207.309.446 1.227.657 2.035l.484 1.617c.008.02.133.153.133.153.277.187 1.117.508 1.675.441l.141-.015.09-.196c.047-.242.062-.48.062-.742 0-.297-.019-.621-.046-1.019l-.039-.586c-.176-2.704-.356-6.606-.356-9.204v-.207c.461.286 2.473 1.555 2.473 1.555 3.418 2.219 8.586 5.57 11.711 6.457a.45.45 0 0 0 .453-.105c.004-.004.476-.305.476-.305l.09-.039c.18-.086.301-.387.32-.715 2.633-.133 6.305-1.144 8.27-3.613a5.159 5.159 0 0 0 1.102-3.133c0-.824-.227-1.535-.645-1.922" style="fill:#fcaf16;fill-opacity:1;fill-rule:nonzero;stroke:none" transform="matrix(.35278 0 0 .35278 -55.627 -138.756)"/><path d="M312.168 413.094h18.508v2.074h-18.508zM316.543 399.625h12.145v-2.078h-14.536v11.156h14.536v-2.078h-12.145zM291.914 397.547v2.101h8.633v2.903h-8.633v2.082h8.633v5.562h2.449v-12.648zM305.938 416.477h2.433v-12.415h2.465v-2.101h-2.465v-4.879h-2.433zM260.77 405.617v3.028h7.101v7.875h-2.426v-5.782h-14.246v-2.093h7.153v-3.028h-8.637v-2.09h15.617v-4.187h-13.867v-2.082h16.297v6.254h1.734v2.105zM283.414 397.543H271.93v9.695h11.484zm-2.41 7.578h-6.656v-5.473h6.656zM289.352 416.441h-15.231v-7.121h2.422v5.024h12.809zM286.754 397.078h2.41v12.727h-2.41zM230.465 414.379h6.058c3.762 0 4.758-1.469 4.758-3.34 0-2.211-1.531-3.437-4.918-3.437h-5.898zm0-8.969h6.25c2.324 0 4.039-.883 4.039-2.933 0-1.797-.848-2.993-4.391-2.993h-5.898zm-3.07-8.117h9.472c4.508 0 6.863 1.492 6.863 4.769 0 2.325-1.625 3.93-3.785 4.364v.078c3.098.371 4.563 2.402 4.563 4.699 0 2.879-2.106 5.363-7.34 5.363h-9.773zM206.547 397.293h3.078v8.625l10.359-8.625h4.356l-10.945 8.703 11.855 10.57h-4.352l-11.273-10.328v10.328h-3.078z" style="fill:#776c61;fill-opacity:1;fill-rule:nonzero;stroke:none" transform="matrix(.35278 0 0 .35278 -55.627 -138.756)"/></svg>