<svg xmlns="http://www.w3.org/2000/svg" viewBox="50.93 51.42 425.2 99.71"><path d="M150.565 99.058c.035.73.056 1.455.061 2.177v.04c0 23.064-15.657 42.471-36.926 48.164a50.337 50.337 0 0 1-10.678 1.639 51.694 51.694 0 0 1-3.243.044c-25.227-.494-45.86-19.731-48.555-44.363a48.41 48.41 0 0 1-.237-3.21 52.686 52.686 0 0 1-.061-2.169v-.105c0-27.527 22.316-49.85 49.849-49.85 23.481 0 43.165 16.233 48.455 38.082a49.917 49.917 0 0 1 1.335 9.551Zm-23.479-22.8c-2.916-.807-5.073-1.499-5.709-2.839-.301-.634-.117-1.272.298-1.571.45-.328 1.056-.219 1.763.126 1.044.506 2.322 1.256 3.303 1.377 2.859.345 2.336-4.027-2.8-6.565-3.021-1.501-5.977-2.116-9.982-1.967-1.483.061-2.882.007-4.122-.189-1.872-.289-4.166-1.083-5.712-1.405-1.182-.249-1.856-.217-2.138.177-.261.373-.177.923.543 1.834 1.446 1.823 3.724 3.85 2.558 8.593-2.884 11.758 1.065 17.14 5.089 18.023 2.255.501 4.332-.028 5.6-1.345 1.205-1.261 1.725-3.393.564-5.199-1.776-2.767-2.403-5.172-.816-6.172 1.45-.916 3.511-.072 5.078 3.433 2.506 5.617 5.768 7.106 9.029 3.111 2.672-3.272 2.567-8.01-2.546-9.422Zm-9.076 30.689c-13.519-8.101-20.224-11.305-25.696-15.212-9.066-6.465-10.5-11.282-10.777-14.634-.495-5.999 4.044-11.399 8.665-13.944.357-.216.968-.715.702-1.398-.268-.69-1.096-.557-1.406-.489-10.335 2.193-20.378 11.294-18.819 23.443.623 4.813 3.684 12.94 19.535 22.274 5.406 3.181 10.074 5.594 17.401 9.789 9.922 5.672 14.489 12.981 8.344 20.954-.466.557-.867 1.135-.7 1.639.189.582.956.683 1.672.361 4.716-2.172 8.612-5.433 10.468-8.456 3.266-5.323 4.893-15.762-9.389-24.327Zm-15.813 32.349c-1.198-.344-3.017-.908-4.532-1.57-1.912-.835-3.639-1.751-4.402-2.506-.499-.501-.576-1.067-.177-1.65 2.285-3.284 2.928-4.584 3.567-6.129 1.357-3.273.016-3.59-2.089-2.984-2.289.655-4.101 1.324-5.504 1.851-1.968.734-3.185 1.184-3.901.834-.746-.361-.883-1.657-1.151-3.806a45.835 45.835 0 0 0-.921-4.973c-.846-3.41-2.306-2.755-3.511-1.361-1.501 1.822-2.329 4.078-2.952 5.262-.333.634-.715.844-1.182.744-1.039-.222-2.413-1.832-3.912-3.746-2.189-2.799-3.166-4.95-4.306-5.083-2.422-.282-1.345 5.447.928 10.169 2.217 4.621 5.656 9.171 11.417 12.811 6.572 4.16 16.284 5.671 22.25 4.832 1.884-.266 2.257-2.154.378-2.695ZM226.976 113.402V73.219c0-2.706-.462-4.095-1.934-5.717-.928-1.161-.305-2.166.85-2.166h13.217v48.066h-12.133Zm13.444 14.989v8.734h-44.122c-9.35 0-13.061-2.395-13.061-10.2v-11.206c0-1.545-.539-2.706-1.623-4.017-.927-1.161-.305-2.244.773-2.244h13.139v15.844c0 2.395.772 3.089 3.166 3.089h41.728ZM189.576 74.38c0-2.55-.156-3.944-1.623-5.567-.927-1.155-.311-2.239.773-2.239h13.366v10.278c0 10.122 9.895 16.072 18.856 19.084l-3.322 6.261c-1.006 1.855-4.789 1.155-11.439-2.939-3.784-2.317-7.417-5.406-9.811-8.65-2.862 4.094-6.417 7.494-10.512 10.2-4.711 3.089-10.739 6.028-11.744 4.094l-3.556-6.722c10.278-4.022 19.012-10.744 19.012-20.556V74.38ZM302.159 114.486V73.219c0-2.706-.383-3.939-1.855-5.717-1.006-1.155-.384-2.166.772-2.166h13.216v18.239h8.806v8.733h-8.806v22.178h-12.133Zm-30.522-15.534c5.333 0 8.422-4.094 8.422-9.039 0-5.255-3.089-9.277-8.422-9.277-5.411 0-8.422 4.022-8.422 9.277 0 4.945 3.011 9.039 8.422 9.039m43.583 29.445v8.728h-43.35c-9.355 0-13.061-2.395-13.061-10.2v-8.112c0-1.55-.544-2.705-1.622-4.022-.928-1.155-.311-2.239.772-2.239h13.139v12.75c0 2.395.772 3.095 3.167 3.095h40.955Zm-49.222-57.339c0-2.706-.156-3.945-1.628-5.722-1-1.156-.383-2.161.778-2.161h13.211v8.655h17.539v8.5h-8.111c2.394 2.706 3.861 6.028 3.861 9.967 0 9.739-7.183 17.155-20.011 17.155-12.75 0-20.011-7.416-20.011-17.155 0-4.017 1.389-7.339 3.705-9.967h-8.111v-8.5h18.778v-.772ZM377.654 138.053V73.297c0-2.706-.384-3.939-1.856-5.717-1.006-1.161-.383-2.244.772-2.244h13.217V90.53h10.044v8.884h-10.044v38.639h-12.133Zm-11.356-55.945c0 15.222-4.795 26.811-14.839 36.628-10.894 10.661-16.228 11.355-17.539 9.733l-5.028-6.333c11.056-6.489 19.089-14.139 22.8-24.189h-24.65v-8.656h26.734c.311-2.777.461-5.716.461-8.727V76.93h-25.495v-8.655h35.7c1.234 0 1.856.616 1.856 1.777v12.056ZM409.359 68.814h57.645v8.655h-43.967v17.695c0 2.705 1.006 4.866 4.639 4.866h39.717v8.656H424.97c-9.194 0-14.45-3.089-14.45-10.895V76.769c0-2.7-.389-3.939-1.855-5.716-.928-1.156-.461-2.239.694-2.239m66.767 62.433h-73.645v-8.733h73.645v8.733Z" style="fill-rule:nonzero;fill:#0046ff"/></svg>