<svg xmlns="http://www.w3.org/2000/svg" id="Layer_2" viewBox="0 0 407.19 106.65"><defs><style>.cls-1{fill:#009476;stroke-width:0}</style></defs><g id="Layer_1-2"><path d="M131.15 23.83V16h11.55v7.83h15.43v7.43h-8.08c3.63 4.37 5.94 10.56 6.02 17.73-.08 13.94-7.92 24.33-19.14 24.33-11.55.08-19.22-10.39-19.22-24.33 0-7.17 2.31-13.36 5.94-17.73h-7.59v-7.43zm5.77 7.59c-4.54 0-8.17 6.92-8.08 17.57-.08 10.14 3.46 16.91 8 16.91s8.09-6.6 8.09-16.91c0-11.13-3.3-17.57-8-17.57Zm39.76 14.69v44.54h-11.14V16h11.14v22.68h10.72v7.43zM208.15 61.77h18.72c5.03 0 8.82.25 13.52-2.23V16h11.13v22.68h10.73v7.43h-10.73v44.54h-11.13V66.98c-3.88 1.73-9.07 2.23-13.77 2.23h-24.66c-4.87 0-8.57-4.7-8.57-10.23V19.3h11.13v39.43c0 1.9 1.24 3.05 3.63 3.05ZM289.55 46.11h-19.46v-7.43h22.27c.83-2.97 1.24-6.02 1.24-8.91v-2.23h-23.51v-7.43h35.06v7.26c0 22.6-15.42 41.24-35.88 43.72v-7.43c9.32-2.8 16.25-9.65 20.29-17.57Zm37.86 0v44.54h-11.13V16h11.13v22.68h10.72v7.43zM340.38 72.5h66.81v7.42h-66.81zm8.33-52.38h50.31v7.43h-39.18V48c0 1.9 1.24 3.05 3.71 3.05h35.46v7.42h-41.65c-4.95 0-8.66-4.7-8.66-10.22V20.12Z" class="cls-1"/><path d="M40.94 10.22c0 5.51 4.46 9.98 9.97 9.98s9.98-4.47 9.98-9.98c0-.83-.19-1.65-.53-2.4-.87-1.81-1.82-2.69-1.73-4.86C58.76.03 55.01 0 52.98 0c-2.2 0-4.55.3-6.53 1.3a9.96 9.96 0 0 0-5.5 8.68v.24" style="stroke-width:0;fill:#da2128"/><path d="M101.55 22.66c-.72-1.1-2.16-1.1-4.84-.61-3.94.73-15.67 3.11-34.27 3.75-8.55.29-17.92.31-27.35-.53-7.71-.69-22.29-3.03-25.54-3.36-1.75-.18-5.73-.45-7.77 1.25-2.69 2.24-1.93 5.57-.33 8.24 0 0 3.54 5.68 11.71 7.35 11.87 1.97 30.24 1.45 36.29.78 13.46-1.25 23.83-3.19 32.06-5.43 0 0 10.97-3.15 16.33-6.16 2.02-1.13 4.9-3.31 3.7-5.28ZM61.37 46.95c-6.7-3.63-14.67-3.65-21.27.13-10.62 6.08-14.34 19.47-8.01 30.4 5.18 8.11 12.1 6.17 14.07 4.12 2.47-2.74 1.54-5.56.23-7.32-2.69-3.32-2.96-5.59-2.96-6.99 0-4.3 3.49-7.79 7.79-7.79 2.26 0 4.45 1.01 5.92 2.74 2.05 2.42 2.3 5.89 2.16 8.66-.91 16.67-7.69 31.03-8.04 32.08-.3.76-.82 2.67.62 3.45 1.1.54 2.39.04 3.66-1.08 3.13-2.67 9.18-10.23 12.4-17.65 1.74-4 6.03-14.61 4.63-25.2-1.44-8.17-6.66-13.09-11.19-15.55Z" class="cls-1"/></g></svg>