<svg xmlns="http://www.w3.org/2000/svg" width="693.21338mm" height="100.31108mm" viewBox="0 0 693.21338 100.31108"><g style="stroke-width:.156749"><g style="stroke-width:.156749"><path d="m0 0-8.791-4.415L-17.576 0l8.785-16.709Z" style="fill:#fab20b;fill-opacity:1;fill-rule:nonzero;stroke:none;stroke-width:.156749" transform="matrix(2.25059 0 0 -2.25059 60.383 0)"/></g><g style="stroke-width:.156749"><path d="m0 0-.135.115 6.271 2.636v8.817L-4.758 6.923S-10.659-4.256-10.795-4.51c4.625-.556 8.094-4.432 8.094-9.099 0-5.054-4.11-9.173-9.163-9.173-5.054 0-9.164 4.119-9.164 9.173a9.147 9.147 0 0 0 8.089 9.099l-6.028 11.433-10.882 4.645V2.751l6.266-2.636L-23.72 0a18.08 18.08 0 0 1-6.183-13.609c0-9.951 8.091-18.049 18.039-18.049 9.95 0 18.044 8.098 18.044 18.049A18.1 18.1 0 0 1 0 0" style="fill:#fab20b;fill-opacity:1;fill-rule:nonzero;stroke:none;stroke-width:.156749" transform="matrix(2.25059 0 0 -2.25059 67.3 29.062)"/></g><g style="stroke-width:.156749"><path d="M0 0c1.721-1.094 2.755-2.691 2.755-4.816 0-4.642-4.997-6.76-11.176-6.76s-11.173 2.118-11.173 6.76c0 4.644 4.927 6.757 11.173 6.757l-.082.012h18.592c.25 0 .449.204.482.509.019.147.119.925-.008 1.575-.053.269-.23.438-.479.438h-15.61v4.83H9.329c.26 0 .454.2.491.495.023.148.117.936-.008 1.588-.05.26-.237.426-.496.426h-28.149c-.786 0-1.441.624-1.441 1.379v6.874c0 .77-.647 1.383-1.441 1.383h-4.42v-9.551c0-1.422 1.223-2.594 2.733-2.594h12.008v-4.83h-17.227l1.668-2.522h5.137c-2.26-1.541-3.608-3.697-3.608-6.47 0-6.612 7.615-9.627 17.003-9.627 9.393 0 17.009 3.015 17.009 9.627 0 1.762-.533 3.265-1.507 4.517z" style="fill:#1c63b7;fill-opacity:1;fill-rule:nonzero;stroke:none;stroke-width:.156749" transform="matrix(2.25059 0 0 -2.25059 370.024 61.39)"/></g><g style="stroke-width:.156749"><path d="M0 0h-6.978c.156.551.236 1.139.236 1.728 0 .543-.071 1.076-.2 1.607H0Zm0-19.758h-21.234a.793.793 0 0 0-.809.786v4.414H0ZM-14.219 5.908q.464-.51.804-1.134a6.2 6.2 0 0 0 .809-3.046c0-3.419-2.469-6.185-6.099-6.185-3.641 0-6.095 2.766-6.095 6.185 0 3.38 2.612 6.142 6.02 6.177h13.12c.249 0 .452.209.487.51.024.151.125.96-.004 1.623-.056.276-.239.439-.496.439h-10.019v1.381c0 .772-.659 1.401-1.483 1.401h-4.543v-2.782h-11.409c.236-.335 1.635-2.475 1.704-2.572h4.299c-2.203-1.574-3.561-3.763-3.561-6.177 0-4.804 4.825-8.677 11.98-8.677 4.812 0 8.341 1.75 10.406 4.377H0v-9.414h-22.043v2.624c0 .792-.661 1.415-1.483 1.415h-4.528v-11.722c0-1.462 1.267-2.661 2.806-2.661H6.044v33.483c0 .787-.674 1.412-1.484 1.412H0V5.908Z" style="fill:#1c63b7;fill-opacity:1;fill-rule:nonzero;stroke:none;stroke-width:.156749" transform="matrix(2.25059 0 0 -2.25059 474.648 39.945)"/></g><g style="stroke-width:.156749"><path d="M0 0h-5.267v-13.595h-21.531V0h-5.27c-1.24 0-2.259-1.199-2.259-2.682v-28.744c0-1.472 1.012-2.682 2.259-2.682h5.27v14.602h21.531v-14.602H0c1.25 0 2.262 1.21 2.262 2.682v28.744C2.262-1.199 1.261 0 0 0" style="fill:#1c63b7;fill-opacity:1;fill-rule:nonzero;stroke:none;stroke-width:.156749" transform="matrix(2.25059 0 0 -2.25059 287.086 13.627)"/></g><g style="stroke-width:.156749"><path d="M0 0h-5.269v-26.118L-21.104-5.255C-23.736-2.213-25.543 0-29.752 0h-5.366v-31.426c0-1.472 1.01-2.682 2.273-2.682h5.262v26.239l15.934-20.72c2.693-3.117 5.088-5.519 8.989-5.519h4.921v31.426C2.261-1.199 1.249 0 0 0" style="fill:#1c63b7;fill-opacity:1;fill-rule:nonzero;stroke:none;stroke-width:.156749" transform="matrix(2.25059 0 0 -2.25059 190.066 13.627)"/></g><g style="stroke-width:.156749"><path d="M0 0v34.153h4.481q.576-.002.97-.401a1.25 1.25 0 0 0 .398-.922v-9.008h4.434q.312 0 .419-.354c.072-.234.114-.542.114-.918 0-.382-.042-.683-.114-.901q-.107-.33-.419-.377H5.849V0Zm-28.091 18.593-1.624 2.502h14.9a28 28 0 0 1 1.295 4.504c.311 1.544.463 3.098.463 4.684h-15.034l-1.624 2.547H-8.13c.373-.026.699-.177.962-.436.267-.27.397-.569.397-.924-.027-3.785-.986-7.514-2.859-11.211q-2.765-5.537-7.956-9.953-5.18-4.42-12.395-6.75l-1.758 2.109c3.574 1.142 6.698 2.841 9.362 5.079 2.669 2.24 4.791 4.857 6.376 7.849z" style="fill:#1c63b7;fill-opacity:1;fill-rule:nonzero;stroke:none;stroke-width:.156749" transform="matrix(2.25059 0 0 -2.25059 572.614 89.106)"/></g><g style="stroke-width:.156749"><path d="M0 0c0-.383.131-.696.393-.947q.397-.372.965-.414h26.948q.31.001.418-.33c.076-.223.094-.517.066-.9.028-.412.01-.729-.066-.949q-.108-.332-.418-.333H-3.165q-1.143.051-1.889.793-.753.744-.792 1.894v17.142h33.717c.2-.032.333-.158.388-.374.066-.218.093-.521.093-.904 0-.374-.027-.687-.093-.916-.055-.242-.188-.357-.388-.357H0Zm30.524-15.187c-.069-.22-.211-.326-.42-.326H-7.387l-1.626 2.453h39.117c.209 0 .351-.103.42-.327.077-.217.096-.518.071-.902.025-.378.006-.676-.071-.898" style="fill:#1c63b7;fill-opacity:1;fill-rule:nonzero;stroke:none;stroke-width:.156749" transform="matrix(2.25059 0 0 -2.25059 624.333 51.11)"/></g></g></svg>