<svg xmlns="http://www.w3.org/2000/svg" width="1242.2786mm" height="300mm" viewBox="0 0 1242.2786 300"><defs><linearGradient id="b" x1="0" x2="1" y1="0" y2="0" gradientTransform="scale(-11.90952 11.90952) rotate(-38.733 5.368 60.781)" gradientUnits="userSpaceOnUse" spreadMethod="pad"><stop offset="0" style="stop-opacity:1;stop-color:#f7f7f8"/><stop offset="0.26303688" style="stop-opacity:1;stop-color:#f7f7f8"/><stop offset="1" style="stop-opacity:1;stop-color:#dcdddd"/></linearGradient><linearGradient id="d" x1="0" x2="1" y1="0" y2="0" gradientTransform="scale(-11.90952 11.90952) rotate(-38.733 -7.585 62.7)" gradientUnits="userSpaceOnUse" spreadMethod="pad"><stop offset="0" style="stop-opacity:1;stop-color:#f7f7f8"/><stop offset="0.26303688" style="stop-opacity:1;stop-color:#f7f7f8"/><stop offset="1" style="stop-opacity:1;stop-color:#dcdddd"/></linearGradient><linearGradient id="f" x1="0" x2="1" y1="0" y2="0" gradientTransform="scale(-13.49746 13.49746) rotate(-38.732 -2.731 74.595)" gradientUnits="userSpaceOnUse" spreadMethod="pad"><stop offset="0" style="stop-opacity:1;stop-color:#f7f7f8"/><stop offset="0.26303688" style="stop-opacity:1;stop-color:#f7f7f8"/><stop offset="1" style="stop-opacity:1;stop-color:#dcdddd"/></linearGradient><linearGradient id="h" x1="0" x2="1" y1="0" y2="0" gradientTransform="scale(-9.52762 9.52762) rotate(-38.732 -20.004 108.907)" gradientUnits="userSpaceOnUse" spreadMethod="pad"><stop offset="0" style="stop-opacity:1;stop-color:#f7f7f8"/><stop offset="0.26303688" style="stop-opacity:1;stop-color:#f7f7f8"/><stop offset="1" style="stop-opacity:1;stop-color:#dcdddd"/></linearGradient><clipPath id="a" clipPathUnits="userSpaceOnUse"><path d="m446.618 205.421.001-.008-.001.012z"/></clipPath><clipPath id="c" clipPathUnits="userSpaceOnUse"><path d="m494.84 113.928.001-.008-.001.013z"/></clipPath><clipPath id="e" clipPathUnits="userSpaceOnUse"><path d="M646.873 205.421v-.009.013z"/></clipPath><clipPath id="g" clipPathUnits="userSpaceOnUse"><path d="m697.351 113.928.001-.007-.001.012z"/></clipPath></defs><g style="fill:#e83e44;fill-opacity:1"><path d="M0 0c0-8.776-7.116-15.89-15.892-15.89-8.775 0-15.891 7.114-15.891 15.89 0 8.774 7.116 15.892 15.891 15.892C-7.116 15.892 0 8.774 0 0" style="fill:#e83e44;fill-opacity:1;fill-rule:nonzero;stroke:none" transform="matrix(9.4393 0 0 -9.4393 300.01 150.01)"/></g><g clip-path="url(#a)" transform="matrix(9.4393 0 0 -9.4393 -3994.617 2061.856)"><path d="m446.618 205.421.001-.008-.001.012z" style="fill:url(#b);stroke:none"/></g><path d="m0 0 .026-.354a.196.196 0 0 1 .11-.181.182.182 0 0 1 .199.041C.928.002 1.828.447 2.55.197c.561-.195.948-.777 1.147-1.735.412-2.003-.965-2.968-1.82-3.365l-.031-.013-1.098-.541s-.06-.024-.127.01c-.066.033-.092.078-.133.195C-.261-2.492-.514.402-.234 3.101c.027.208.117.452.281.653l.914.982.105.112c.505.49.968.73 1.223.625.218-.09.27-.426.274-.694C2.602 3.344 1.801 1.877.112.295.112.295-.014.189 0 0m5.061 1.99c-.5.299-1.071.385-1.641.303 1.044 1.108 1.611 2.315 1.611 3.533 0 .11-.006.223-.015.334-.057.758-.411 1.326-.944 1.52-.548.199-1.535.099-3.119-1.514L.008 5.105c-.258-.32-1.254-1.826-1.442-3.393-.306-2.669-.109-5.329.569-7.692.08-.274.332-.942.945-1.191.652-.261 1.27.054 1.813.337l.146.072.561.252.547.242.669.291c.477.195.928.379 1.362.745a3.945 3.945 0 0 1 1.23 1.884c.113.382.191.799.234 1.274.033.368.067 1.08-.068 1.709-.299 1.381-.989 2.044-1.513 2.355" style="fill:#fff;fill-opacity:1;fill-rule:nonzero;stroke:none" transform="matrix(9.4393 0 0 -9.4393 24.988 133.278)"/><path d="M0 0c-.309 1.057-.817 1.281-.961 1.33a8.393 8.393 0 0 1-4.021.274C-6.983 1.236-8.716.189-9.859-1.351c-1.202-1.618-1.666-3.632-1.31-5.672.36-2.049 1.398-3.706 3.003-4.793 1.88-1.27 4.389-1.657 7.064-1.09 1.579.34 2.892.957 3.904 1.83.452.392.542.89.542 1.243 0 0 .02.282-.198 1.171-.06.219-.155.281-.307.281-.11 0-.228-.125-.251-.152-.752-.873-1.904-1.481-3.343-1.766-3.684-.708-6.52 1.014-7.222 4.39-.302 1.461-.05 2.864.707 3.952.769 1.1 2.024 1.832 3.537 2.059A6.399 6.399 0 0 0-.35-.313S.098-.441 0 0" style="fill:#fff;fill-opacity:1;fill-rule:nonzero;stroke:none" transform="matrix(9.4393 0 0 -9.4393 190.489 35.438)"/><g style="fill:#595757;fill-opacity:1"><path d="M0 0v-20.662c0-.508-.14-.912-.421-1.209-.28-.299-.693-.451-1.236-.451h-1.688V0Zm-12.468-13.841c.547 0 .987.159 1.321.474.334.314.501.84.501 1.574v3.652h-5.461v-4.804c0-.336.071-.567.211-.698a.712.712 0 0 1 .5-.198h2.928m1.822 7.92V-.84h1.654c.509 0 .911-.154 1.21-.463.299-.305.446-.705.446-1.196v-8.056c0-.826-.101-1.576-.304-2.251a5.19 5.19 0 0 0-.869-1.739 3.824 3.824 0 0 0-1.394-1.117c-.554-.266-1.172-.395-1.858-.395h-5.242c-.736 0-1.328.221-1.775.669-.448.449-.674 1.084-.674 1.909V-.84h1.686c.528 0 .935-.154 1.224-.463.289-.305.435-.705.435-1.196v-3.422h5.461" style="fill:#595757;fill-opacity:1;fill-rule:nonzero;stroke:none" transform="matrix(9.4393 0 0 -9.4393 558.76 44.767)"/></g><g style="fill:#595757;fill-opacity:1"><path d="M0 0v-20.662c0-.508-.141-.912-.42-1.209-.28-.299-.691-.451-1.235-.451h-1.656V0Zm-14.3-7.561c0-1.052.115-1.947.345-2.685a6.695 6.695 0 0 1 1.027-2.027h.107c.458.58.801 1.22 1.029 1.923.229.702.343 1.553.343 2.551v6.961h1.92c.438 0 .762-.124.972-.369.211-.244.317-.59.317-1.026v-5.328c0-1.701.306-3.121.921-4.252.615-1.131 1.552-1.953 2.818-2.46l-1.895-1.554a6.175 6.175 0 0 0-1.844.975 8.346 8.346 0 0 0-1.58 1.579h-.104a9.533 9.533 0 0 0-.619-.75 8.393 8.393 0 0 0-.645-.633c-.23-.202-.474-.399-.737-.592a14.79 14.79 0 0 0-.948-.632c-.668.401-1.232.798-1.697 1.185a7.466 7.466 0 0 0-1.305 1.422h-.104c-.949-1.299-2.072-2.151-3.372-2.554l-1.867 1.554c1.228.49 2.153 1.279 2.778 2.367.622 1.092.932 2.459.932 4.107v6.961h1.922c.438 0 .762-.124.971-.369.213-.244.315-.59.315-1.026v-5.328" style="fill:#595757;fill-opacity:1;fill-rule:nonzero;stroke:none" transform="matrix(9.4393 0 0 -9.4393 780.409 44.767)"/></g><path d="M269.693 228.854h3.293v1.863h-3.293zm.113-5.744v17.342c0 .426-.116.766-.354 1.015-.235.25-.58.379-1.038.379h-1.415V223.11h2.807m-15.305 12.991a10.141 10.141 0 0 0 2.2-.808c.759-.375 1.457-.831 2.098-1.37a7.135 7.135 0 0 0 1.581-1.853c.413-.7.618-1.445.618-2.243v-2.363c0-1.194-.558-1.79-1.678-1.79h-4.575v-1.862h5.303c2.563 0 3.843 1.144 3.843 3.427v2.14a6.09 6.09 0 0 1-.695 2.886 8.832 8.832 0 0 1-1.812 2.354 11.15 11.15 0 0 1-2.506 1.757c-.93.48-1.865.829-2.807 1.05l-1.57-1.325m6.694-5.329H254.3v-1.874h6.895z" style="fill:#595757;fill-opacity:1;fill-rule:nonzero;stroke:none;stroke-width:.83933" transform="matrix(11.24624 0 0 11.24624 -2040.786 -2464.377)"/><g style="fill:#595757;fill-opacity:1"><path d="M0 0v-1.236c0-.3-.094-.54-.277-.726-.185-.182-.444-.275-.777-.275h-12.267c-.718 0-1.3.228-1.747.685-.448.455-.67 1.096-.67 1.922v6.418c0 .807.222 1.438.67 1.895.447.457 1.029.683 1.747.683H-.289V8.155c0-.331-.098-.584-.29-.761-.193-.176-.448-.262-.765-.262h-10.109a.97.97 0 0 1-.698-.264c-.185-.176-.277-.437-.277-.791V.944c0-.349.08-.593.237-.736.158-.141.378-.208.659-.208Zm2.952-7.594c0-.387-.108-.677-.329-.87a1.098 1.098 0 0 0-.748-.291h-20.301v2.217H2.952v-1.056" style="fill:#595757;fill-opacity:1;fill-rule:nonzero;stroke:none" transform="matrix(9.4393 0 0 -9.4393 1214.414 142.21)"/></g><g style="fill:#e83e44;fill-opacity:1"><path d="M0 0c0-8.775-7.116-15.891-15.89-15.891-8.777 0-15.892 7.116-15.892 15.891s7.115 15.893 15.892 15.893C-7.116 15.893 0 8.775 0 0" style="fill:#e83e44;fill-opacity:1;fill-rule:nonzero;stroke:none" transform="matrix(.83933 0 0 -.83933 405.815 440.137)"/></g><g clip-path="url(#c)" transform="matrix(.83933 0 0 -.83933 -16.53 533.343)"><path d="m494.84 113.928.001-.008-.001.013z" style="fill:url(#d);stroke:none"/></g><path d="m0 0 .024-.354c0-.08.042-.15.111-.181a.183.183 0 0 1 .199.04C.928.001 1.828.447 2.55.196c.561-.195.948-.777 1.145-1.735.414-2.002-.963-2.967-1.819-3.365l-.032-.012-1.098-.543s-.06-.023-.126.01c-.067.033-.091.08-.133.195C-.262-2.492-.514.401-.236 3.1c.027.209.119.452.283.653l.912.982.106.111c.506.491.969.73 1.222.627.219-.09.27-.427.276-.695C2.601 3.342 1.8 1.877.11.295.11.295-.015.189 0 0m5.06 1.99c-.499.297-1.07.383-1.642.302C4.463 3.4 5.029 4.607 5.029 5.824c0 .112-.004.224-.015.334-.057.759-.41 1.327-.943 1.522-.548.199-1.534.099-3.118-1.514L.006 5.104c-.258-.319-1.252-1.825-1.442-3.393-.305-2.669-.109-5.328.571-7.691.078-.276.33-.942.945-1.192.652-.262 1.268.055 1.813.338l.144.071.563.253.546.242.67.291c.476.194.928.379 1.36.745a3.92 3.92 0 0 1 1.23 1.882c.115.383.192.801.235 1.275.033.368.068 1.081-.068 1.709-.3 1.382-.988 2.044-1.513 2.356" style="fill:#fff;fill-opacity:1;fill-rule:nonzero;stroke:none" transform="matrix(.83933 0 0 -.83933 381.362 438.649)"/><path d="M0 0c-.309 1.059-.815 1.283-.96 1.331a8.364 8.364 0 0 1-4.02.273C-6.982 1.238-8.716.19-9.859-1.35c-1.202-1.617-1.666-3.632-1.309-5.671.359-2.049 1.398-3.708 3.004-4.793 1.879-1.27 4.388-1.657 7.062-1.09 1.581.34 2.892.957 3.904 1.83.452.391.543.888.543 1.242 0 0 .019.281-.199 1.172-.058.217-.153.281-.306.281-.111 0-.227-.127-.25-.152-.753-.873-1.906-1.483-3.345-1.766-3.683-.709-6.519 1.013-7.222 4.389-.3 1.461-.05 2.865.708 3.953.768 1.1 2.024 1.831 3.536 2.059A6.432 6.432 0 0 0-.349-.311S.098-.439 0 0" style="fill:#fff;fill-opacity:1;fill-rule:nonzero;stroke:none" transform="matrix(.83933 0 0 -.83933 396.077 429.95)"/><g style="fill:#595757;fill-opacity:1"><path d="M0 0v-17.654c0-.436-.12-.782-.36-1.035-.241-.254-.592-.383-1.058-.383h-1.441V0Zm-10.653-11.826c.466 0 .841.135 1.128.404.284.272.428.719.428 1.348v3.119h-4.667v-4.106c0-.287.06-.484.18-.595a.61.61 0 0 1 .427-.17h2.504m1.556 6.767v4.342h1.412c.435 0 .779-.133 1.034-.394.255-.262.38-.604.38-1.024v-6.883c0-.707-.083-1.345-.258-1.923a4.369 4.369 0 0 0-.743-1.485 3.282 3.282 0 0 0-1.192-.957c-.473-.226-1.001-.336-1.587-.336h-4.479c-.629 0-1.135.19-1.518.573-.383.382-.575.925-.575 1.63V-.717h1.441c.451 0 .798-.133 1.046-.394.247-.262.372-.604.372-1.024v-2.924h4.667" style="fill:#595757;fill-opacity:1;fill-rule:nonzero;stroke:none" transform="matrix(.83933 0 0 -.83933 373.486 460.229)"/></g><g style="fill:#595757;fill-opacity:1"><path d="M0 0v-17.654c0-.436-.121-.782-.359-1.035-.241-.254-.591-.383-1.057-.383h-1.413V0Zm-12.221-6.459c0-.9.099-1.664.295-2.295a5.687 5.687 0 0 1 .879-1.732h.09c.393.496.686 1.043.879 1.644.197.598.293 1.326.293 2.18v5.947h1.642c.373 0 .651-.105.83-.314.182-.209.27-.504.27-.877v-4.553c0-1.455.264-2.666.787-3.633.526-.969 1.326-1.67 2.409-2.105l-1.62-1.326a5.325 5.325 0 0 0-1.576.834 7.115 7.115 0 0 0-1.348 1.349h-.09a7.928 7.928 0 0 0-.53-.642 7.005 7.005 0 0 0-.55-.539 9.383 9.383 0 0 0-.629-.506 13.367 13.367 0 0 0-.811-.541c-.569.343-1.054.681-1.451 1.011a6.545 6.545 0 0 0-1.114 1.217h-.089c-.811-1.111-1.77-1.84-2.88-2.183l-1.597 1.326c1.05.42 1.839 1.095 2.372 2.025.533.932.799 2.1.799 3.51v5.947h1.641c.375 0 .652-.105.83-.314.181-.209.269-.504.269-.877v-4.553" style="fill:#595757;fill-opacity:1;fill-rule:nonzero;stroke:none" transform="matrix(.83933 0 0 -.83933 390.328 460.229)"/></g><path d="M249.22 334.26h2.815v1.591h-2.815zm.097-4.908v14.818c0 .365-.1.655-.302.869-.202.213-.498.321-.888.321h-1.208v-16.008h2.398m-13.079 11.1a8.604 8.604 0 0 0 1.88-.69 8.938 8.938 0 0 0 1.794-1.171 6.064 6.064 0 0 0 1.35-1.583 3.72 3.72 0 0 0 .527-1.918v-2.019c0-1.02-.476-1.53-1.433-1.53h-3.91v-1.59h4.533c2.19 0 3.284.977 3.284 2.927v1.831c0 .894-.199 1.716-.594 2.466a7.597 7.597 0 0 1-1.549 2.011 9.492 9.492 0 0 1-2.143 1.502c-.793.408-1.591.708-2.397.897l-1.342-1.133m5.72-4.553h-5.892v-1.603h5.892z" style="fill:#595757;fill-opacity:1;fill-rule:nonzero;stroke:none;stroke-width:.83933" transform="translate(157.203 130.877)"/><g style="fill:#595757;fill-opacity:1"><path d="M0 0v-1.057c0-.256-.077-.461-.235-.619-.158-.156-.378-.234-.663-.234h-10.483c-.614 0-1.111.195-1.494.584-.381.388-.571.937-.571 1.642v5.487c0 .687.19 1.226.571 1.617.383.389.88.582 1.494.582H-.246V6.971c0-.285-.084-.5-.248-.653-.164-.148-.383-.224-.653-.224h-8.639a.824.824 0 0 1-.596-.225c-.158-.15-.235-.373-.235-.674V.809c0-.299.066-.51.201-.629.135-.121.322-.18.562-.18Zm2.524-6.488c0-.332-.092-.578-.281-.744a.937.937 0 0 0-.64-.248h-17.347v1.894H2.524v-.902" style="fill:#595757;fill-opacity:1;fill-rule:nonzero;stroke:none" transform="matrix(.83933 0 0 -.83933 423.303 467.632)"/></g><g style="fill:#e83e44;fill-opacity:1"><path d="M0 0c0-8.776-7.115-15.891-15.891-15.891S-31.783-8.776-31.783 0c0 8.774 7.116 15.892 15.892 15.892S0 8.774 0 0" style="fill:#e83e44;fill-opacity:1;fill-rule:nonzero;stroke:none" transform="matrix(.83933 0 0 -.83933 533.422 363.345)"/></g><g clip-path="url(#e)" transform="matrix(.83933 0 0 -.83933 -16.53 533.343)"><path d="M646.873 205.421v-.009.013z" style="fill:url(#f);stroke:none"/></g><path d="m0 0 .025-.354a.195.195 0 0 1 .11-.181.185.185 0 0 1 .2.04c.593.496 1.493.942 2.214.691.562-.195.949-.777 1.148-1.734.412-2.003-.965-2.968-1.821-3.365l-.03-.013-1.098-.542s-.06-.023-.128.01c-.066.033-.091.079-.133.195C-.262-2.492-.514.402-.234 3.101c.027.208.117.451.281.652l.913.982.106.112c.504.49.967.73 1.223.627.217-.091.27-.428.274-.696C2.602 3.343 1.8 1.877.111.295.111.295-.015.19 0 0m5.06 1.99c-.499.298-1.07.384-1.64.302 1.043 1.109 1.61 2.316 1.61 3.533 0 .112-.005.223-.014.334-.057.758-.411 1.326-.945 1.521-.548.199-1.534.099-3.118-1.514L.008 5.104c-.258-.318-1.254-1.825-1.442-3.392-.306-2.67-.109-5.329.569-7.692.08-.275.331-.942.945-1.191.652-.262 1.27.054 1.813.337l.145.072.562.252.546.242.67.291c.477.195.928.379 1.362.745a3.944 3.944 0 0 1 1.23 1.883c.113.383.19.8.233 1.274.033.369.068 1.081-.067 1.709-.299 1.382-.989 2.045-1.514 2.356" style="fill:#fff;fill-opacity:1;fill-rule:nonzero;stroke:none" transform="matrix(.83933 0 0 -.83933 508.968 361.857)"/><path d="M0 0c-.309 1.058-.818 1.282-.962 1.33a8.364 8.364 0 0 1-4.02.274C-6.984 1.237-8.717.189-9.859-1.35c-1.203-1.617-1.666-3.632-1.311-5.672.361-2.049 1.399-3.707 3.004-4.793 1.879-1.27 4.389-1.657 7.064-1.089 1.579.339 2.891.956 3.903 1.829.452.392.543.889.543 1.243 0 0 .019.281-.199 1.171-.059.218-.155.281-.307.281-.11 0-.227-.126-.25-.152-.753-.873-1.904-1.482-3.344-1.766-3.683-.708-6.52 1.014-7.222 4.39-.301 1.461-.049 2.864.708 3.953.768 1.099 2.024 1.83 3.536 2.058A6.407 6.407 0 0 0-.351-.312S.098-.44 0 0" style="fill:#fff;fill-opacity:1;fill-rule:nonzero;stroke:none" transform="matrix(.83933 0 0 -.83933 523.685 353.158)"/><g style="fill:#595757;fill-opacity:1"><path d="M0 0c0 2.633.492 5.121 3.719 5.121 3.235 0 3.694-2.488 3.694-5.121v-2.701c0-1.454-.909-2.38-3.694-2.38C.492-5.081 0-2.632 0 0m10.865-3.928v17.611H7.413V6.591c-.969.618-2.225 1.03-4.12 1.03-1.479 0-3.125-.329-4.065-.826a4.157 4.157 0 0 1-.804-.537C-2.871 5.186-3.34 3.58-3.498 1.921A15.768 15.768 0 0 1-3.58.178c0-2.251.207-4.802 2.004-6.294C-.597-6.935.984-7.43 2.77-7.43H6.297c.984.023 4.568.315 4.568 3.502" style="fill:#595757;fill-opacity:1;fill-rule:nonzero;stroke:none" transform="matrix(.83933 0 0 -.83933 609.788 365.89)"/></g><g style="fill:#595757;fill-opacity:1"><path d="M0 0h-2.242c-.498 0-.902.353-.957.797v15.321c.055.449.459.801.957.801H.186c2.693 0 4.361-1.149 4.361-3.186 0-3.314-3.16-4.197-6.082-4.252-.135 0-.244-.097-.244-.22v-.586c0-.13.109-.225.244-.225 2.902-.05 6.738-.598 6.738-4.693C5.203 1.076 2.74 0 0 0m.342-2.696c6.771 0 9.226 3.173 9.226 6.311 0 2.995-2.273 4.976-4.748 5.558 2.559.674 3.905 2.306 3.905 4.663 0 2.539-1.961 5.773-8.864 5.773v.005h-2.032c-1.058-.019-4.921-.314-4.921-3.496V.807c0-3.688 5.184-3.503 5.184-3.503z" style="fill:#595757;fill-opacity:1;fill-rule:nonzero;stroke:none" transform="matrix(.83933 0 0 -.83933 546.056 370.457)"/></g><g style="fill:#595757;fill-opacity:1"><path d="M0 0c2.168-.08 3.724-.824 5.248-1.896a.298.298 0 0 1 .186-.051c.205 0 .372.167.372.375v.889c0 1.473-.455 2.081-.902 2.353-1.785.97-3.879 1.514-6.123 1.514-6.502 0-11.043-4.537-11.043-11.036v-.003c0-6.503 4.541-11.04 11.043-11.04 2.244 0 4.338.547 6.123 1.517.447.274.902.88.902 2.354v.889a.372.372 0 0 1-.372.372.303.303 0 0 1-.186-.05C3.724-14.884 2.168-15.626 0-15.71c-5.021-.188-8.216 2.766-8.216 7.855v.003C-8.216-2.762-5.021.191 0 0" style="fill:#595757;fill-opacity:1;fill-rule:nonzero;stroke:none" transform="matrix(.83933 0 0 -.83933 565.313 356.764)"/></g><g style="fill:#595757;fill-opacity:1"><path d="M0 0c1.006.711 2.482.896 3.764.829C4.924.771 6.502.347 7.516-.398a.26.26 0 0 1 .157-.044c.163 0 .298.131.298.292v1.188c0 .827-.42 1.222-.662 1.382-1.35.736-2.95 1.15-4.667 1.15a9.717 9.717 0 0 1-2.46-.305C-3.246 2.363-5.491-.27-5.495-4.01v-.008c.004-3.739 2.249-6.369 5.677-7.273a9.673 9.673 0 0 1 2.46-.304c1.717 0 3.317.412 4.667 1.152.242.158.662.555.662 1.38v1.187a.296.296 0 0 1-.298.293.275.275 0 0 1-.157-.044c-1.014-.745-2.592-1.168-3.752-1.227C2.482-8.921.939-8.709 0-8.026c-1.299.948-2.063 2.099-2.063 4.014C-2.063-2.271-1.314-.931 0 0" style="fill:#595757;fill-opacity:1;fill-rule:nonzero;stroke:none" transform="matrix(.83933 0 0 -.83933 576.608 362.536)"/></g><g style="fill:#595757;fill-opacity:1"><path d="M0 0c0-1.924-1.479-2.29-3.646-2.409a10.181 10.181 0 0 0-.466-.014c-2.249 0-3.271.759-3.271 2.108 0 1.456.926 2.144 3.737 2.352C-2.088 2.152 0 1.987 0 1.987Zm-3.646 10.282c-.129.002-.262.004-.397.004-.964 0-3.133-.108-4.908-1.218-.238-.159-.656-.532-.656-1.36V6.625c0-.164.068-.278.236-.294a.357.357 0 0 1 .216.048c.776.444 1.671.757 2.583.981.897.22 1.722.32 2.39.312C-1.246 7.641 0 6.773 0 4.586V4.39s-2.145.093-3.646.038c-5.842-.219-7.069-2.615-7.208-4.326-.11-1.334.428-2.596 1.381-3.379 1.086-.893 2.66-1.459 4.721-1.459h3.575c.982.022 4.57.314 4.57 3.507v5.531c0 3.871-2.413 5.871-7.039 5.98" style="fill:#595757;fill-opacity:1;fill-rule:nonzero;stroke:none" transform="matrix(.83933 0 0 -.83933 593.38 368.151)"/></g><g style="fill:#595757;fill-opacity:1"><path d="M0 0v-1.425c0-.199-.139-.361-.341-.361-2.347-.013-6.241-.027-6.241-3.14v-8.917h-3.578v9.703c0 3.557 4.674 5.315 9.227 4.926C-.402.742 0 .604 0 0" style="fill:#595757;fill-opacity:1;fill-rule:nonzero;stroke:none" transform="matrix(.83933 0 0 -.83933 606.377 360.205)"/></g><g style="fill:#e83e44;fill-opacity:1"><path d="M0 0c0-8.775-7.115-15.889-15.891-15.889-8.777 0-15.89 7.114-15.89 15.889 0 8.775 7.113 15.893 15.89 15.893C-7.115 15.893 0 8.775 0 0" style="fill:#e83e44;fill-opacity:1;fill-rule:nonzero;stroke:none" transform="matrix(.83933 0 0 -.83933 575.79 440.137)"/></g><g clip-path="url(#g)" transform="matrix(.83933 0 0 -.83933 -16.53 533.343)"><path d="m697.351 113.928.001-.007-.001.012z" style="fill:url(#h);stroke:none"/></g><path d="m0 0 .025-.354c0-.078.041-.15.112-.181.064-.028.138-.014.197.041.595.496 1.494.941 2.217.691.56-.195.947-.777 1.146-1.736.412-2.002-.964-2.967-1.82-3.365l-.032-.012-1.098-.541s-.061-.023-.126.01c-.068.033-.092.078-.133.195C-.26-2.492-.513.402-.235 3.1c.028.209.119.453.282.654l.912.982.107.112c.506.49.969.73 1.223.625.217-.09.268-.426.274-.694C2.602 3.344 1.801 1.877.111.295.111.295-.014.189 0 0m5.061 1.99c-.499.299-1.071.385-1.641.303C4.465 3.4 5.029 4.609 5.029 5.826c0 .11-.004.223-.014.334-.058.758-.411 1.326-.943 1.52-.547.199-1.535.099-3.119-1.514L.008 5.105c-.258-.32-1.254-1.826-1.442-3.394-.306-2.668-.11-5.328.569-7.691.08-.274.33-.942.945-1.19.653-.264 1.269.053 1.814.336l.143.072.563.252.548.242.668.291c.477.196.928.379 1.361.745a3.947 3.947 0 0 1 1.231 1.884c.114.383.191.799.234 1.274.033.369.067 1.08-.068 1.709-.3 1.381-.988 2.043-1.513 2.355" style="fill:#fff;fill-opacity:1;fill-rule:nonzero;stroke:none" transform="matrix(.83933 0 0 -.83933 551.336 438.649)"/><path d="M0 0c-.31 1.057-.816 1.281-.961 1.33a8.381 8.381 0 0 1-4.021.274c-2-.368-3.735-1.415-4.878-2.956-1.203-1.617-1.666-3.63-1.308-5.671.358-2.049 1.398-3.707 3.002-4.793 1.881-1.27 4.389-1.657 7.063-1.09 1.581.34 2.892.957 3.904 1.83.451.392.543.89.543 1.244 0 0 .019.281-.199 1.17-.059.219-.153.281-.305.281-.111 0-.229-.125-.252-.152-.752-.873-1.905-1.481-3.344-1.766-3.683-.707-6.519 1.014-7.223 4.389-.3 1.461-.048 2.865.709 3.953.768 1.1 2.024 1.832 3.536 2.059A6.401 6.401 0 0 0-.35-.313S.097-.441 0 0" style="fill:#fff;fill-opacity:1;fill-rule:nonzero;stroke:none" transform="matrix(.83933 0 0 -.83933 566.052 429.95)"/><g style="fill:#595757;fill-opacity:1"><path d="M0 0c0 2.254.42 4.383 3.186 4.383 2.767 0 3.158-2.129 3.158-4.383v-2.313c0-1.242-.778-2.039-3.158-2.039C.42-4.352 0-2.254 0 0m9.301-3.363v15.076H6.344V5.641c-.828.531-1.904.882-3.526.882-1.265 0-2.673-.281-3.479-.707a3.54 3.54 0 0 1-.689-.461c-1.107-.916-1.509-2.291-1.646-3.712A14.132 14.132 0 0 1-3.064.152c0-1.927.177-4.111 1.714-5.388.84-.7 2.194-1.125 3.723-1.125.041 0 .078 0 .119.002v-.002h2.899c.842.017 3.91.271 3.91 2.998" style="fill:#595757;fill-opacity:1;fill-rule:nonzero;stroke:none" transform="matrix(.83933 0 0 -.83933 588.374 470.339)"/></g><g style="fill:#595757;fill-opacity:1"><path d="M0 0h-1.919c-.427 0-.772.303-.819.684v13.115c.047.383.392.683.819.683H.159c2.306 0 3.736-.984 3.736-2.726 0-2.836-2.707-3.594-5.211-3.639-.114 0-.206-.084-.206-.189v-.5c0-.112.092-.196.206-.196 2.486-.043 5.771-.511 5.771-4.015C4.455.924 2.346 0 0 0m.291-2.307c5.799 0 7.9 2.715 7.9 5.405 0 2.562-1.946 4.257-4.064 4.756 2.189.576 3.342 1.974 3.342 3.992 0 2.172-1.678 4.941-7.589 4.941v.004h-1.737c-.905-.018-4.213-.27-4.213-2.994V.689c0-3.154 4.437-2.996 4.437-2.996z" style="fill:#595757;fill-opacity:1;fill-rule:nonzero;stroke:none" transform="matrix(.83933 0 0 -.83933 533.818 474.248)"/></g><g style="fill:#595757;fill-opacity:1"><path d="M0 0c1.854-.068 3.188-.705 4.491-1.621a.248.248 0 0 1 .157-.043c.178 0 .323.143.323.318v.76c0 1.262-.392 1.783-.772 2.016-1.532.83-3.323 1.297-5.244 1.297-5.564 0-9.451-3.883-9.451-9.45v-.002c0-5.564 3.887-9.447 9.451-9.447 1.921 0 3.712.465 5.244 1.297.38.232.772.752.772 2.014v.763a.321.321 0 0 1-.323.319.26.26 0 0 1-.157-.043C3.188-12.74 1.854-13.377 0-13.447c-4.297-.162-7.033 2.365-7.033 6.722v.002C-7.033-2.365-4.297.164 0 0" style="fill:#595757;fill-opacity:1;fill-rule:nonzero;stroke:none" transform="matrix(.83933 0 0 -.83933 550.303 462.527)"/></g><g style="fill:#595757;fill-opacity:1"><path d="M0 0c.86.609 2.126.768 3.222.709C4.215.662 5.566.297 6.433-.342a.248.248 0 0 1 .136-.037c.139 0 .253.111.253.252V.891c0 .707-.358 1.043-.564 1.181-1.156.629-2.527.985-3.996.985-.748 0-1.449-.09-2.106-.262C-2.779 2.023-4.7-.23-4.704-3.43h-.001V-3.439h.001c.004-3.2 1.925-5.454 4.86-6.223a8.192 8.192 0 0 1 2.106-.264c1.469 0 2.84.356 3.996.987.206.136.564.474.564 1.181v1.016a.254.254 0 0 1-.389.215c-.867-.639-2.218-1.002-3.211-1.051C2.126-7.637.805-7.455 0-6.869c-1.112.812-1.768 1.795-1.768 3.435C-1.768-1.943-1.125-.795 0 0" style="fill:#595757;fill-opacity:1;fill-rule:nonzero;stroke:none" transform="matrix(.83933 0 0 -.83933 559.972 467.468)"/></g><g style="fill:#595757;fill-opacity:1"><path d="M0 0c0-1.645-1.268-1.959-3.121-2.063-.13-.003-.265-.009-.4-.009-1.925 0-2.799.648-2.799 1.804 0 1.243.794 1.834 3.199 2.012C-1.787 1.844 0 1.703 0 1.703Zm-3.121 8.803c-.111 0-.225.004-.34.004-.826 0-2.682-.094-4.2-1.043-.206-.137-.564-.457-.564-1.166v-.926c0-.139.059-.238.204-.252a.341.341 0 0 1 .185.039c.662.383 1.429.65 2.209.842.769.187 1.475.273 2.047.267C-1.069 6.541 0 5.799 0 3.926v-.168s-1.836.08-3.121.031c-5-.185-6.05-2.236-6.17-3.701-.096-1.143.367-2.221 1.182-2.893.929-.763 2.279-1.25 4.043-1.25h3.059c.84.018 3.911.272 3.911 3.002v4.735c0 3.314-2.066 5.027-6.025 5.121" style="fill:#595757;fill-opacity:1;fill-rule:nonzero;stroke:none" transform="matrix(.83933 0 0 -.83933 574.329 472.275)"/></g><g style="fill:#595757;fill-opacity:1"><path d="M0 0v-1.217c0-.172-.117-.308-.289-.308-2.012-.012-5.344-.026-5.344-2.69v-7.631h-3.064v8.307c0 3.043 4.002 4.547 7.898 4.215C-.346.639 0 .521 0 0" style="fill:#595757;fill-opacity:1;fill-rule:nonzero;stroke:none" transform="matrix(.83933 0 0 -.83933 585.453 465.475)"/></g></svg>