<svg xmlns="http://www.w3.org/2000/svg" width="89.407951mm" height="24.384001mm" viewBox="0 0 89.407949 24.384002"><g style="font-style:italic;font-weight:700;font-size:25.4px;font-family:SamsungGothicRoundOTF;fill:#003cdc;stroke-width:10.5833;stroke-linecap:square"><path d="m12.268 12.497 1.778-2.413c-1.32-.635-2.667-1.6-3.657-2.896-.991-1.244-1.651-2.768-1.651-4.572V.533H5.436v2.134c0 1.829-.635 3.454-1.651 4.851C2.769 8.941 1.422 10.058 0 10.871l1.981 2.312c1.143-.686 2.26-1.55 3.175-2.54.89-.94 1.6-1.982 2.032-2.972 1.042 1.93 2.642 3.505 5.08 4.826zM18.771 8h3.683V5.334H18.77V0h-3.15v13.411h3.15zM5.436 24.054H18.77v-9.728H5.436zm10.185-7.061v4.42H8.56v-4.42zM35.433 12.903l1.778-2.464c-1.346-.685-2.692-1.6-3.632-2.819-.99-1.194-1.6-2.667-1.6-4.572V.533h-3.353V3.1c0 1.727-.584 3.251-1.524 4.572-.94 1.346-2.337 2.514-3.886 3.53l1.955 2.363c1.22-.737 2.312-1.702 3.226-2.642.89-.94 1.575-1.93 1.956-2.845.406.813 1.092 1.702 1.981 2.54.89.89 1.981 1.677 3.099 2.286zm4.369.635h3.15V0h-3.15v4.216h-4.445V7.01h4.445zm2.768 5.283c0-1.625-.66-2.997-1.752-3.987-1.118-.991-2.667-1.575-4.496-1.575-1.829 0-3.353.584-4.445 1.575-1.118.99-1.753 2.362-1.753 3.987 0 1.702.635 3.074 1.753 4.064 1.092.94 2.616 1.499 4.445 1.499 1.829 0 3.378-.559 4.496-1.499 1.092-.99 1.752-2.362 1.752-4.064zm-3.098 0c0 1.753-1.321 2.921-3.15 2.921s-3.099-1.168-3.099-2.92c0-1.728 1.27-2.896 3.099-2.896.914 0 1.676.305 2.26.813a2.87 2.87 0 0 1 .89 2.082zM46.355 14.25l1.803 2.463c3.125-1.524 5.715-3.403 7.544-5.918 1.829-2.464 2.87-5.588 2.947-9.55H48.108v2.667h7.34a12.197 12.197 0 0 1-.482 2.438l-7.824.305.534 2.768 5.969-.482c-.305.457-.686.863-1.067 1.27-1.6 1.65-3.76 2.92-6.223 4.038zm17.628-4.801h3.683V6.807h-3.683V0h-3.175v21.31h3.175zM86.335 12.065V9.398H75.057V3.734h11.15V1.092h-14.3v10.973zM68.63 18.847h20.777V16.23H68.631Z"/></g></svg>