<svg xmlns="http://www.w3.org/2000/svg" width="24" height="24" viewBox="0 0 24 24">
    <g fill="none" fill-rule="evenodd">
        <g fill="#3D3D3B">
            <path d="M9 1.5c2.003 0 3.886.78 5.303 2.197C15.72 5.114 16.5 6.997 16.5 9c0 1.75-.596 3.41-1.693 4.747l7.693 7.692-1.06 1.061-7.693-7.693C12.41 15.904 10.75 16.5 9 16.5c-2.003 0-3.886-.78-5.303-2.197C2.28 12.886 1.5 11.003 1.5 9s.78-3.886 2.197-5.303C5.114 2.28 6.997 1.5 9 1.5zM9 3c-1.603 0-3.11.624-4.243 1.757C3.624 5.891 3 7.397 3 9c0 1.603.624 3.11 1.757 4.243C5.891 14.376 7.397 15 9 15c1.603 0 3.11-.624 4.243-1.757C14.376 12.11 15 10.603 15 9c0-1.603-.624-3.11-1.757-4.243C12.11 3.624 10.603 3 9 3z"/>
        </g>
    </g>
</svg>
