<?xml version="1.0" encoding="UTF-8"?>
<svg width="18px" height="16px" viewBox="0 0 18 16" version="1.1" xmlns="http://www.w3.org/2000/svg" xmlns:xlink="http://www.w3.org/1999/xlink">
    <title>icon-left</title>
    <defs>
        <polygon id="path-1" points="0 0.0142161929 16.6262705 0.0142161929 16.6262705 15.2885444 0 15.2885444"></polygon>
    </defs>
    <g id="event" stroke="none" stroke-width="1" fill="none" fill-rule="evenodd">
        <g id="Group" transform="translate(-1.000000, -2.000000)">
            <g id="kakaotalk-icon" transform="translate(1.666667, 1.666667)">
                <g id="Group-6" transform="translate(0.000000, 0.833333)">
                    <path d="M6.64478467,5.62531438 L6.08763566,7.21515073 L7.21950474,7.21515073 L6.66274332,5.62699397 C6.65649871,5.62699397 6.65107235,5.62531438 6.64478467,5.62531438" id="Fill-1" fill="#1D1D1C"></path>
                    <g id="Group-5" transform="translate(0.000000, 0.028854)">
                        <mask id="mask-2" fill="white">
                            <use xlink:href="#path-1"></use>
                        </mask>
                        <g id="Clip-4"></g>
                        <path d="M14.3427649,8.71374246 C14.1659345,8.84742033 13.9138243,8.81107235 13.7812231,8.6338975 L12.589621,7.07015935 L12.3334625,7.32601637 L12.3334625,8.34556848 C12.3334625,8.59380276 12.1327735,8.79419035 11.885056,8.79419035 C11.6372093,8.79419035 11.436391,8.59380276 11.436391,8.34556848 L11.436391,5.04113264 C11.436391,4.7931137 11.6372093,4.59229543 11.885056,4.59229543 C12.1327735,4.59229543 12.3334625,4.7931137 12.3334625,5.04113264 L12.3334625,6.2094789 L13.7425065,4.8003919 C13.8971146,4.64634367 14.1472007,4.64634367 14.3011628,4.8003919 C14.455168,4.9544832 14.455168,5.2047416 14.3009905,5.3585745 L13.1628338,6.49729113 L14.4226098,8.15181309 C14.5555986,8.32898794 14.5199397,8.58071059 14.3427649,8.71374246 L14.3427649,8.71374246 Z M10.8101206,8.76619724 L9.1579242,8.76619724 C8.9501292,8.76619724 8.7827304,8.59802326 8.7827304,8.39044358 C8.7827304,8.36641258 8.78527132,8.34203704 8.78975022,8.31891042 C8.78587425,8.29535314 8.7827304,8.27196813 8.7827304,8.24711886 L8.7827304,5.04113264 C8.7827304,4.7931137 8.9835056,4.59229543 9.23130922,4.59229543 C9.47898363,4.59229543 9.67975883,4.7931137 9.67975883,5.04113264 L9.67975883,8.01546512 L10.8101206,8.01546512 C11.0179156,8.01546512 11.1852713,8.1836391 11.1852713,8.39044358 C11.1852713,8.59802326 11.0179156,8.76619724 10.8101206,8.76619724 L10.8101206,8.76619724 Z M8.20107666,8.7717528 C7.99177433,8.84539621 7.76231697,8.73493109 7.68871662,8.52575797 L7.48268734,7.93729974 L5.8245478,7.93729974 L5.61843239,8.52575797 C5.54483204,8.73493109 5.31507321,8.84539621 5.10581395,8.7717528 C4.89694229,8.69832472 4.78669251,8.46903962 4.86024978,8.25930663 L6.05159345,5.0639578 C6.05822567,5.04483635 6.0664944,5.02709302 6.07476314,5.00952196 C6.12334195,4.77300172 6.36795866,4.59229543 6.66373816,4.59229543 C6.93040482,4.59229543 7.15374677,4.73945306 7.23139535,4.94130491 C7.23255814,4.9423385 7.23544358,4.94500861 7.23544358,4.94500861 L8.44698536,8.25930663 C8.52054264,8.46903962 8.41020672,8.69832472 8.20107666,8.7717528 L8.20107666,8.7717528 Z M4.2213609,8.38975452 C4.2213609,8.4963006 4.17807924,8.59983204 4.10241171,8.67528424 C4.02799311,8.75000431 3.92459087,8.7931137 3.81869078,8.7931137 L3.73036176,8.7931137 C3.62411714,8.7931137 3.52024117,8.75000431 3.44608096,8.67515504 C3.37028424,8.59970284 3.32713178,8.49556848 3.32713178,8.38975452 L3.32713178,5.47752369 L2.53682171,5.47752369 C2.30835487,5.47752369 2.12329888,5.29242463 2.12329888,5.0639578 C2.12329888,4.83570629 2.30835487,4.65056417 2.53682171,4.65056417 L4.96787252,4.65056417 C5.19655469,4.65056417 5.38169681,4.83570629 5.38169681,5.0639578 C5.38169681,5.29242463 5.19655469,5.47752369 4.96787252,5.47752369 L4.2213609,5.47752369 L4.2213609,8.38975452 Z M8.31313523,0.0142161929 C3.72174849,0.0142161929 0,2.95633506 0,6.58622308 C0,8.94866925 1.57700258,11.0190827 3.94375538,12.1775237 C3.76989664,12.8267916 3.31421189,14.5294617 3.22265289,14.8935874 C3.11016365,15.3457407 3.38858742,15.3396684 3.57080103,15.2178768 C3.71369509,15.1227003 5.84883721,13.6714083 6.77011197,13.0448794 C7.26998277,13.1189535 7.78570198,13.1583161 8.31313523,13.1583161 C12.9043928,13.1583161 16.6262705,10.2154651 16.6262705,6.58622308 C16.6262705,2.95633506 12.9043928,0.0142161929 8.31313523,0.0142161929 L8.31313523,0.0142161929 Z" id="Fill-3" fill="#1D1D1C" mask="url(#mask-2)"></path>
                    </g>
                </g>
                <rect id="Rectangle" x="0" y="0" width="16.6666667" height="16.6666667"></rect>
            </g>
        </g>
    </g>
</svg>