<svg width="512" height="512" viewBox="0 0 512 512" fill="none" xmlns="http://www.w3.org/2000/svg">
<circle cx="256" cy="256" r="256" fill="#242424"/>
<path d="M100.633 138.438L149.195 220.141H150.836L199.727 138.438H255.508L182.992 257.219L257.148 376H200.055L150.836 294.297H149.195L99.9766 376H43.2109L117.695 257.219L44.5234 138.438H100.633Z" fill="white"/>
<path d="M414.32 206.359C412.352 187.656 397.258 176.5 373.305 176.5C348.367 176.5 334.586 187.984 334.258 203.734C333.93 220.797 351.977 228.672 372.32 233.266L393.648 238.516C434.336 247.703 464.852 268.375 464.852 308.078C464.852 351.719 430.727 379.281 372.977 379.281C315.555 379.281 278.805 352.703 277.492 301.844H325.398C327.039 325.797 346.07 337.938 372.32 337.938C398.242 337.938 414.977 325.797 414.977 308.078C414.977 292 400.211 284.453 374.289 277.891L348.367 271.656C308.336 261.812 283.727 241.797 283.727 207.016C283.727 163.703 321.789 135.156 373.633 135.156C426.133 135.156 460.914 164.359 461.57 206.359H414.32Z" fill="#FF1493" fill-opacity="0.866667"/>
</svg>
